<svg width="65" height="65" viewBox="0 0 65 65" fill="none" xmlns="http://www.w3.org/2000/svg">
<path d="M36.7219 5.38029L37.2017 5.83515L37.8082 5.57182L43.1444 3.25482L45.7428 8.45979L46.0381 9.05132L46.698 9.0113L52.5049 8.65911L53.1664 14.4389L53.2416 15.0958L53.8754 15.2839L59.4525 16.939L58.0973 22.5964L57.9433 23.2394L58.4746 23.6329L63.1493 27.0957L59.9408 31.9485L59.5762 32.5L59.9408 33.0515L63.1493 37.9043L58.4746 41.3671L57.9433 41.7606L58.0973 42.4036L59.4525 48.061L53.8754 49.7161L53.2416 49.9042L53.1664 50.5611L52.5049 56.3409L46.698 55.9887L46.0381 55.9487L45.7428 56.5402L43.1444 61.7452L37.8082 59.4282L37.2017 59.1649L36.7219 59.6197L32.5 63.6221L28.2781 59.6197L27.7983 59.1649L27.1918 59.4282L21.8556 61.7452L19.2572 56.5402L18.9619 55.9487L18.302 55.9887L12.4951 56.3409L11.8336 50.5611L11.7584 49.9042L11.1246 49.7161L5.5475 48.061L6.90268 42.4036L7.05669 41.7606L6.52542 41.3671L1.85074 37.9043L5.05917 33.0515L5.4238 32.5L5.05917 31.9485L1.85074 27.0957L6.52542 23.6329L7.05669 23.2394L6.90268 22.5964L5.5475 16.939L11.1246 15.2839L11.7584 15.0958L11.8336 14.4389L12.4951 8.65911L18.302 9.0113L18.9619 9.05132L19.2572 8.45979L21.8556 3.25482L27.1918 5.57182L27.7983 5.83515L28.2781 5.38029L32.5 1.37793L36.7219 5.38029Z" fill="#000C38" stroke="white" stroke-width="2"/>
</svg>
